{
 "cells": [
  {
   "cell_type": "markdown",
   "metadata": {},
   "source": [
    "# Generate video given a model"
   ]
  },
  {
   "cell_type": "markdown",
   "metadata": {},
   "source": [
    "### Definitions"
   ]
  },
  {
   "cell_type": "code",
   "execution_count": 2,
   "metadata": {},
   "outputs": [],
   "source": [
    "from torchvision import transforms\n",
    "import subprocess\n",
    "import json\n",
    "import os\n",
    "import cv2\n",
    "from PIL import Image\n",
    "import torch\n",
    "import torchaudio\n",
    "import torchaudio.transforms as audio_T\n",
    "from models.model import AVENet\n",
    "from torch.autograd import Variable\n",
    "import numpy as np\n",
    "class GetSampleFromJson:\n",
    "    def __init__(self, json_file, local_dir):\n",
    "        self.json_file = json_file\n",
    "        self.local_dir = local_dir\n",
    "        with open(json_file, 'r') as f:\n",
    "            data_json = json.load(f)\n",
    "        self.data = data_json['data']\n",
    "        self.image_base_path = data_json['image_base_path']\n",
    "        self.audio_base_path = data_json['audio_base_path']\n",
    "        self._init_transforms()\n",
    "        self.AmplitudeToDB = audio_T.AmplitudeToDB()\n",
    "    \n",
    "    def _init_transforms(self):\n",
    "        mean = [0.485, 0.456, 0.406]\n",
    "        std = [0.229, 0.224, 0.225]\n",
    "        self.img_transform = transforms.Compose([\n",
    "            transforms.Resize(224,Image.BICUBIC),\n",
    "            transforms.CenterCrop(224),\n",
    "            transforms.ToTensor(),\n",
    "            transforms.Normalize(mean=mean, std=std)\n",
    "        ])\n",
    "\n",
    "    def get_sample(self, index):\n",
    "        sample = self.data[index]\n",
    "        image = os.path.join(self.image_base_path, sample['image'])\n",
    "        audio = os.path.join(self.audio_base_path, sample['wav'])\n",
    "        return image, audio\n",
    "    \n",
    "    def check_sample_in_local(self, index):\n",
    "        img, aud = self.get_sample(index)\n",
    "        img_local = os.path.join(self.local_dir + \"/frame\", img.split('/')[-1])\n",
    "        aud_local = os.path.join(self.local_dir + \"/audio\", aud.split('/')[-1])\n",
    "        return os.path.exists(img_local), os.path.exists(aud_local)\n",
    "    \n",
    "    def download_sample(self, index):\n",
    "\n",
    "        img_rem_path, aud_rem_path = self.get_sample(index)\n",
    "        if all(self.check_sample_in_local(index)):\n",
    "            print(\"Sample already downloaded\")\n",
    "        else:\n",
    "            print(f\"Sample NOT in {self.local_dir} \\n-> download  \")\n",
    "            command = [\"scp\", \"-P\", \"2122\", \"asantos@pirineus3.csuc.cat:\" + img_rem_path, self.local_dir+\"/frame\"]\n",
    "            print(command)\n",
    "            subprocess.run(command)\n",
    "            command = [\"scp\", \"-P\", \"2122\", \"asantos@pirineus3.csuc.cat:\" + aud_rem_path, self.local_dir+\"/audio\"]\n",
    "            print(command)\n",
    "            subprocess.run(command)\n",
    "            \n",
    "        img_local_path = os.path.join(self.local_dir+\"/frame\", img_rem_path.split('/')[-1])\n",
    "        aud_local_path = os.path.join(self.local_dir+\"/audio\", aud_rem_path.split('/')[-1])\n",
    "\n",
    "        return img_local_path, aud_local_path\n",
    "   \n",
    "    def load_image(self, image_path):\n",
    "        img = Image.open(image_path).convert('RGB')\n",
    "        img = self.img_transform(img)\n",
    "        return img\n",
    "    \n",
    "    def show_image(self, img_path):\n",
    "        img = cv2.imread(img_path)\n",
    "        cv2.imshow(\"image\", img)\n",
    "        cv2.waitKey(0)\n",
    "        cv2.destroyAllWindows()\n",
    "\n",
    "    def load_audio_to_spec(self, audio_path):\n",
    "        samples, samplerate = torchaudio.load(audio_path)\n",
    "\n",
    "        if samples.shape[1] < samplerate * 10:\n",
    "            n = int(samplerate * 10 / samples.shape[1]) + 1\n",
    "            samples = samples.repeat(1, n)\n",
    "\n",
    "        samples = samples[...,:samplerate*10]\n",
    "\n",
    "        spectrogram  =  audio_T.MelSpectrogram(\n",
    "                sample_rate=samplerate,\n",
    "                n_fft=512,\n",
    "                hop_length=239, \n",
    "                n_mels=257,\n",
    "                normalized=True\n",
    "            )(samples)\n",
    "        spectrogram =  self.AmplitudeToDB(spectrogram)\n",
    "        return spectrogram\n",
    "    \n",
    "\n",
    "class MatchmapVideoGenerator:\n",
    "    def __init__(self,model, device, img, spec,args, matchmap = None):\n",
    "        self.model = model\n",
    "        self.device = device\n",
    "        self.spec = Variable(spec.unsqueeze(0)).to(device, non_blocking=True) if spec.dim() == 3 else Variable(spec).to(device, non_blocking=True)\n",
    "        self.image = Variable(img.unsqueeze(0)).to(device, non_blocking=True) if img.dim() == 3 else Variable(img).to(device, non_blocking=True)\n",
    "        self.args = args\n",
    "        self.matchmap = matchmap\n",
    "        self.video = None\n",
    "\n",
    "    def compute_matchmap(self):\n",
    "        self.model.eval()\n",
    "        with torch.no_grad():\n",
    "            img_emb,aud_emb = self.model(self.image.float(), self.spec.float(), self.args)\n",
    "            img_emb = img_emb.squeeze(0)\n",
    "            aud_emb = aud_emb.squeeze(0)\n",
    "            self.matchmap = torch.einsum('ct, chw -> thw',aud_emb,img_emb)\n",
    "        return self.matchmap\n",
    "    \n",
    "    def normalize_img(self, value, vmax=None, vmin=None):\n",
    "        '''\n",
    "        Normalize heatmap\n",
    "        '''\n",
    "        vmin = value.min() if vmin is None else vmin\n",
    "        vmax = value.max() if vmax is None else vmax\n",
    "        if not (vmax - vmin) == 0:\n",
    "            value = (value - vmin) / (vmax - vmin)  # vmin..vmax\n",
    "        return value\n",
    "    \n",
    "    def get_frame_match(self, img_np, matchmap_np, frame_idx):\n",
    "        assert img_np.ndim == 3, \"img_np should be a 3D numpy array\"\n",
    "        assert matchmap_np.ndim == 3, \"matchmap_np should be a 3D numpy array\"\n",
    "\n",
    "        matchmap_i = matchmap_np[frame_idx]\n",
    "        matchmap_i = cv2.resize(matchmap_i, dsize=(224, 224), interpolation=cv2.INTER_LINEAR)\n",
    "        matchmap_i = self.normalize_img(matchmap_i)\n",
    "        matchmap_i_photo = (matchmap_i * 255).astype(np.uint8)\n",
    "        matchmap_i_photo = cv2.applyColorMap(matchmap_i_photo, cv2.COLORMAP_JET)\n",
    "        matchmap_i_photo = cv2.addWeighted(matchmap_i_photo, 0.5, img_np, 0.5, 0)\n",
    "        return matchmap_i_photo\n",
    "    \n",
    "    def create_video_f(self,img_np, matchmap_np, output_path=\"matchmap_video.mp4\", fps=1):\n",
    "        n_frames = matchmap_np.shape[0]\n",
    "        \n",
    "        # Make sure img_np is in uint8 format\n",
    "        if img_np.dtype != np.uint8:\n",
    "            img_np = (img_np * 255).astype(np.uint8)\n",
    "        \n",
    "        # Make sure img_np has correct dimensions (224, 224, 3)\n",
    "        if img_np.shape[:2] != (224, 224):\n",
    "            img_np = cv2.resize(img_np, (224, 224))\n",
    "        \n",
    "        # Use proper codec for compatibility\n",
    "        # For better compatibility, try 'avc1' or 'H264' instead of 'mp4v'\n",
    "        fourcc = cv2.VideoWriter_fourcc(*'avc1') \n",
    "        \n",
    "        # Alternative codec options if 'avc1' doesn't work:\n",
    "        # fourcc = cv2.VideoWriter_fourcc(*'H264')\n",
    "        # fourcc = cv2.VideoWriter_fourcc(*'XVID')  # More compatible but lower quality\n",
    "        \n",
    "        out = cv2.VideoWriter(output_path, fourcc, fps, (224, 224))\n",
    "        \n",
    "        if not out.isOpened():\n",
    "            print(\"Failed to create VideoWriter. Trying alternative codec...\")\n",
    "            # Try with different codec\n",
    "            fourcc = cv2.VideoWriter_fourcc(*'XVID')\n",
    "            out = cv2.VideoWriter(output_path.replace('.mp4', '.avi'), fourcc, fps, (224, 224))\n",
    "        \n",
    "        for i in range(n_frames):\n",
    "            frame = self.get_frame_match(img_np, matchmap_np, i)\n",
    "            \n",
    "            # Ensure frame is the correct format\n",
    "            if frame.dtype != np.uint8:\n",
    "                frame = (frame * 255).astype(np.uint8)\n",
    "                \n",
    "            # Ensure frame has the right shape\n",
    "            if frame.shape[:2] != (224, 224):\n",
    "                frame = cv2.resize(frame, (224, 224))\n",
    "                \n",
    "            # Verify frame is BGR (OpenCV's default format)\n",
    "            if len(frame.shape) == 3 and frame.shape[2] == 3:\n",
    "                out.write(frame)\n",
    "            else:\n",
    "                print(f\"Warning: Frame {i} has incorrect format. Shape: {frame.shape}\")\n",
    "        \n",
    "        out.release()\n",
    "        print(f\"Video created at: {output_path}\")\n",
    "        \n",
    "        # Verify the file was created and has a non-zero size\n",
    "        if os.path.exists(output_path) and os.path.getsize(output_path) > 0:\n",
    "            print(f\"Success! Video file created: {os.path.getsize(output_path)} bytes\")\n",
    "        else:\n",
    "            print(\"Error: Video file was not created properly\")\n",
    "            \n",
    "\n",
    "    def create_video(self,output_path):\n",
    "        img_np = self.image[0].cpu().numpy()\n",
    "        img_np = np.transpose(img_np, (1, 2, 0))\n",
    "        img_np = self.normalize_img(img_np)\n",
    "        img_np = (img_np * 255).astype(np.uint8)\n",
    "        img_np = cv2.cvtColor(img_np, cv2.COLOR_RGB2BGR)\n",
    "\n",
    "        if self.matchmap is None:\n",
    "            self.matchmap = self.compute_matchmap()\n",
    "\n",
    "        matchmap_np = self.matchmap.cpu().numpy()\n",
    "        n_frames = matchmap_np.shape[0]\n",
    "        self.create_video_f(img_np, matchmap_np, output_path, fps=n_frames/10) # 10 sec duration\n",
    "\n",
    "\n",
    "    def add_audio_to_video(self, video_path, audio_path):\n",
    "        \"\"\"\n",
    "        Add audio to video using ffmpeg and overwrite the output file if it exists.\n",
    "        \"\"\"\n",
    "        temp_output = \"temp_output.mp4\"\n",
    "        \n",
    "        # Ensure the audio file exists\n",
    "        if not os.path.exists(audio_path):\n",
    "            raise Exception(\"Error: Audio file not found.\")\n",
    "\n",
    "        # Use ffmpeg to merge audio and video\n",
    "        command = [\n",
    "            \"ffmpeg\",\n",
    "            \"-y\",  # Overwrite output files without asking\n",
    "            \"-i\", video_path,  # Input video\n",
    "            \"-stream_loop\", \"-1\",  # Infinite loop for audio\n",
    "            \"-i\", audio_path,  # Input audio\n",
    "            \"-map\", \"0:v\",  # Video stream from first input\n",
    "            \"-map\", \"1:a\",  # Audio stream from second input\n",
    "            \"-c:v\", \"copy\",  # Copy video codec (no re-encoding)\n",
    "            \"-c:a\", \"libmp3lame\",  # Encode audio in mp3 format\n",
    "            \"-t\", \"10\",  # 10 sec duration\n",
    "            temp_output\n",
    "        ]\n",
    "        \n",
    "        try:\n",
    "            subprocess.run(command, check=True)\n",
    "            # Delete the original video file\n",
    "            os.remove(video_path)\n",
    "            # Rename the temporary output file to the original video file\n",
    "            os.rename(temp_output, video_path)\n",
    "        except subprocess.CalledProcessError:\n",
    "            print(\"Error adding audio to video.\")\n",
    "\n",
    "\n",
    "    def create_video_with_audio(self, output_path, audio_path):\n",
    "        self.create_video(output_path)\n",
    "        self.add_audio_to_video(output_path, audio_path)\n",
    "\n",
    "def load_model(ckpt_path, args):\n",
    "    model = AVENet(args)\n",
    "    device = torch.device('cuda' if torch.cuda.is_available() else 'cpu')\n",
    "    checkpoint = torch.load(ckpt_path, map_location=device)\n",
    "    model.load_state_dict(checkpoint['state_dict'])\n",
    "    model.to(device)\n",
    "    return model, device\n",
    "        "
   ]
  },
  {
   "cell_type": "markdown",
   "metadata": {},
   "source": [
    "### Demo"
   ]
  },
  {
   "cell_type": "code",
   "execution_count": 3,
   "metadata": {},
   "outputs": [
    {
     "name": "stderr",
     "output_type": "stream",
     "text": [
      "/tmp/ipykernel_1355/1936299536.py:29: DeprecationWarning: BICUBIC is deprecated and will be removed in Pillow 10 (2023-07-01). Use Resampling.BICUBIC instead.\n",
      "  transforms.Resize(224,Image.BICUBIC),\n",
      "/home/albert/miniconda3/envs/ssl-cpu/lib/python3.8/site-packages/torchaudio/functional/functional.py:576: UserWarning: At least one mel filterbank has all zero values. The value for `n_mels` (257) may be set too high. Or, the value for `n_freqs` (257) may be set too low.\n",
      "  warnings.warn(\n"
     ]
    },
    {
     "name": "stdout",
     "output_type": "stream",
     "text": [
      "Sample already downloaded\n",
      "Video created at: dir_exp_PlacesAudio/mm_lr1e-5_2layersB256_epoch100_val_9.mp4\n",
      "Success! Video file created: 124618 bytes\n"
     ]
    },
    {
     "name": "stderr",
     "output_type": "stream",
     "text": [
      "ffmpeg version 5.1.2 Copyright (c) 2000-2022 the FFmpeg developers\n",
      "  built with gcc 11.3.0 (conda-forge gcc 11.3.0-19)\n",
      "  configuration: --prefix=/home/albert/miniconda3/envs/ssl-cpu --cc=/home/conda/feedstock_root/build_artifacts/ffmpeg_1674566204550/_build_env/bin/x86_64-conda-linux-gnu-cc --cxx=/home/conda/feedstock_root/build_artifacts/ffmpeg_1674566204550/_build_env/bin/x86_64-conda-linux-gnu-c++ --nm=/home/conda/feedstock_root/build_artifacts/ffmpeg_1674566204550/_build_env/bin/x86_64-conda-linux-gnu-nm --ar=/home/conda/feedstock_root/build_artifacts/ffmpeg_1674566204550/_build_env/bin/x86_64-conda-linux-gnu-ar --disable-doc --disable-openssl --enable-demuxer=dash --enable-hardcoded-tables --enable-libfreetype --enable-libfontconfig --enable-libopenh264 --enable-gnutls --enable-libmp3lame --enable-libvpx --enable-pthreads --enable-vaapi --enable-gpl --enable-libx264 --enable-libx265 --enable-libaom --enable-libsvtav1 --enable-libxml2 --enable-pic --enable-shared --disable-static --enable-version3 --enable-zlib --enable-libopus --pkg-config=/home/conda/feedstock_root/build_artifacts/ffmpeg_1674566204550/_build_env/bin/pkg-config\n",
      "  libavutil      57. 28.100 / 57. 28.100\n",
      "  libavcodec     59. 37.100 / 59. 37.100\n",
      "  libavformat    59. 27.100 / 59. 27.100\n",
      "  libavdevice    59.  7.100 / 59.  7.100\n",
      "  libavfilter     8. 44.100 /  8. 44.100\n",
      "  libswscale      6.  7.100 /  6.  7.100\n",
      "  libswresample   4.  7.100 /  4.  7.100\n",
      "  libpostproc    56.  6.100 / 56.  6.100\n",
      "Input #0, mov,mp4,m4a,3gp,3g2,mj2, from 'dir_exp_PlacesAudio/mm_lr1e-5_2layersB256_epoch100_val_9.mp4':\n",
      "  Metadata:\n",
      "    major_brand     : isom\n",
      "    minor_version   : 512\n",
      "    compatible_brands: isomiso2avc1mp41\n",
      "    encoder         : Lavf59.27.100\n",
      "  Duration: 00:00:10.00, start: 0.000000, bitrate: 99 kb/s\n",
      "  Stream #0:0[0x1](und): Video: h264 (High) (avc1 / 0x31637661), yuv420p(progressive), 224x224, 98 kb/s, 4.20 fps, 4.20 tbr, 10752 tbn (default)\n",
      "    Metadata:\n",
      "      handler_name    : VideoHandler\n",
      "      vendor_id       : [0][0][0][0]\n",
      "Guessed Channel Layout for Input Stream #1.0 : mono\n",
      "Input #1, wav, from 'dir_exp_PlacesAudio/audio/utterance_232894.wav':\n",
      "  Duration: 00:00:05.67, bitrate: 256 kb/s\n",
      "  Stream #1:0: Audio: pcm_s16le ([1][0][0][0] / 0x0001), 16000 Hz, mono, s16, 256 kb/s\n",
      "Stream mapping:\n",
      "  Stream #0:0 -> #0:0 (copy)\n",
      "  Stream #1:0 -> #0:1 (pcm_s16le (native) -> mp3 (libmp3lame))\n",
      "Press [q] to stop, [?] for help\n",
      "Output #0, mp4, to 'temp_output.mp4':\n",
      "  Metadata:\n",
      "    major_brand     : isom\n",
      "    minor_version   : 512\n",
      "    compatible_brands: isomiso2avc1mp41\n",
      "    encoder         : Lavf59.27.100\n",
      "  Stream #0:0(und): Video: h264 (High) (avc1 / 0x31637661), yuv420p(progressive), 224x224, q=2-31, 98 kb/s, 4.20 fps, 4.20 tbr, 10752 tbn (default)\n",
      "    Metadata:\n",
      "      handler_name    : VideoHandler\n",
      "      vendor_id       : [0][0][0][0]\n",
      "  Stream #0:1: Audio: mp3 (mp4a / 0x6134706D), 16000 Hz, mono, s16p\n",
      "    Metadata:\n",
      "      encoder         : Lavc59.37.100 libmp3lame\n",
      "frame=   42 fps=0.0 q=-1.0 Lsize=     152kB time=00:00:10.01 bitrate= 124.7kbits/s speed=66.7x    \n",
      "video:120kB audio:30kB subtitle:0kB other streams:0kB global headers:0kB muxing overhead: 1.666352%\n"
     ]
    }
   ],
   "source": [
    "import sys\n",
    "from opts import get_arguments\n",
    "\n",
    "# Simulate command-line arguments\n",
    "sys.argv = ['script_name', '--order_3_tensor', '--simtype', 'MISA']\n",
    "\n",
    "args = get_arguments()\n",
    "\n",
    "#JSON\n",
    "split = \"val\"\n",
    "json_file = f\"garbage/{split}.json\"\n",
    "local_dir_saving = \"dir_exp_PlacesAudio\"\n",
    "\n",
    "# Load model\n",
    "# model_name = \"2layers_lr1e-5_epoch100\"\n",
    "# model_name = \"2layers_lr1e-5_epoch1\"\n",
    "model_name = \"lr1e-5_2layersB256_epoch100\"\n",
    "\n",
    "checkpoint_path = f'garbage/{model_name}.pth.tar'\n",
    "model,device = load_model(checkpoint_path, args)\n",
    "\n",
    "#SAMPLE\n",
    "sample_idx = 9\n",
    "\n",
    "# Get the image and audio\n",
    "gs = GetSampleFromJson(json_file,local_dir_saving)\n",
    "img_local_path, aud_local_path = gs.download_sample(sample_idx)\n",
    "\n",
    "img = gs.load_image(img_local_path)\n",
    "spec = gs.load_audio_to_spec(aud_local_path)\n",
    "\n",
    "# Generate the video\n",
    "mgv = MatchmapVideoGenerator(model,device,img,spec,args)\n",
    "# mgv.create_video(local_dir_saving+ f\"/mm_{model_name}_{split}_{sample_idx}.mp4\")\n",
    "mgv.create_video_with_audio(local_dir_saving+ f\"/mm_{model_name}_{split}_{sample_idx}.mp4\", aud_local_path)\n"
   ]
  },
  {
   "cell_type": "markdown",
   "metadata": {},
   "source": [
    "# Class for everything\n",
    "This class will be able to process the txt file of the desired model, and download the model with the desired weights and maybe retrieve the video"
   ]
  },
  {
   "cell_type": "code",
   "execution_count": 15,
   "metadata": {},
   "outputs": [
    {
     "name": "stdout",
     "output_type": "stream",
     "text": [
      "links_SSL_TIE_PlacesAudio-lr1e-5-2ly-B128-SISA-1GPUS-wV_135932.json\n"
     ]
    }
   ],
   "source": [
    "def folder_exists_in_cluster(remote_path):\n",
    "    # Command to check if the folder exists\n",
    "    check_command = f\"ssh -p 2122 asantos@pirineus3.csuc.cat '[ -d \\\"{remote_path}\\\" ] && echo Exists || echo NotExists'\"\n",
    "    result = subprocess.run(check_command, shell=True, capture_output=True, text=True)\n",
    "    \n",
    "    return result.stdout.strip() == \"Exists\"\n",
    "\n",
    "def count_files_in_folder(remote_path):\n",
    "    # Command to count files in the folder\n",
    "    count_command = f\"ssh -p 2122 asantos@pirineus3.csuc.cat 'ls -1 \\\"{remote_path}\\\" | wc -l'\"\n",
    "    result = subprocess.run(count_command, shell=True, capture_output=True, text=True)\n",
    "\n",
    "    return int(result.stdout.strip()) if result.stdout.strip().isdigit() else 0\n",
    "\n",
    "def list_files_in_remote_folder(remote_path):\n",
    "    # Command to list all files in the remote folder\n",
    "    list_command = f\"ssh -p 2122 asantos@pirineus3.csuc.cat 'ls -1 \\\"{remote_path}\\\"'\"\n",
    "    result = subprocess.run(list_command, shell=True, capture_output=True, text=True)\n",
    "    \n",
    "    if result.returncode == 0:\n",
    "        return result.stdout.strip().split('\\n') if result.stdout.strip() else []\n",
    "    else:\n",
    "        print(f\"Error listing files in remote folder: {result.stderr}\")\n",
    "        return []\n",
    "\n",
    "def download_remote_file(remote_path, local_path):\n",
    "    \"\"\"\n",
    "    Downloads a specific file from a remote folder to a local folder using scp.\n",
    "    \"\"\"\n",
    "    # Ensure the local directory exists\n",
    "    local_dir = os.path.dirname(local_path)\n",
    "    if not os.path.exists(local_dir):\n",
    "        os.makedirs(local_dir)\n",
    "\n",
    "    # Command to download the specific file\n",
    "    download_command = f\"scp -P 2122 asantos@pirineus3.csuc.cat:\\\"{remote_path}\\\" \\\"{local_path}\\\"\"\n",
    "    result = subprocess.run(download_command, shell=True, capture_output=True, text=True)\n",
    "\n",
    "    if result.returncode == 0:\n",
    "        print(f\"Successfully downloaded {remote_path} to {local_path}\")\n",
    "    else:\n",
    "        print(f\"Error downloading {remote_path}: {result.stderr}\")\n",
    "# print(folder_exists_in_cluster(remote_path=\"code\"))\n",
    "# print(count_files_in_folder(remote_path=\"code\"), type(count_files_in_folder(remote_path=\"code\")))\n",
    "print((list_files_in_remote_folder(\"models/SSL_TIE_PlacesAudio-lr1e-5-2ly-B128-SISA-1GPUS-wV\")[0]))"
   ]
  },
  {
   "cell_type": "code",
   "execution_count": 5,
   "metadata": {},
   "outputs": [
    {
     "data": {
      "text/plain": [
       "True"
      ]
     },
     "execution_count": 5,
     "metadata": {},
     "output_type": "execute_result"
    }
   ],
   "source": [
    "model_name = \"try_json\"\n",
    "folder_exists_in_cluster(f'models/{model_name}')"
   ]
  },
  {
   "cell_type": "code",
   "execution_count": 29,
   "metadata": {},
   "outputs": [
    {
     "name": "stdout",
     "output_type": "stream",
     "text": [
      "Using links_SSL_TIE_PlacesAudio-lr1e-5-2ly-B128-SISA-1GPUS-wV_135932.json\n",
      "The model is still available. Creation time:  2025-03-25 18:32:00\n",
      "The model will be available for 6 more days.\n",
      "59\n",
      "{'time_creation': '2025-03-25 18:32', 'learning_rate': 1e-05, 'batch_size': 128, 'simtype': 'SISA', 'temperature': 0.07, 'val_video_idx': 10}\n",
      "/scratch/upftfg03/asantos/135932/SSL_TIE_PlacesAudio-lr1e-5-2ly-B128-SISA-1GPUS-wV/model/epoch1.pth.tar\n",
      "Downloading video\n",
      "Successfully downloaded /scratch/upftfg03/asantos/135932/SSL_TIE_PlacesAudio-lr1e-5-2ly-B128-SISA-1GPUS-wV/img/val_videos/epoch_59.mp4 to dir_exp_PlacesAudio/mm_SSL_TIE_PlacesAudio-lr1e-5-2ly-B128-SISA-1GPUS-wV-epoch59_val_10.mp4\n",
      "garbage/mm_SSL_TIE_PlacesAudio-lr1e-5-2ly-B128-SISA-1GPUS-wV-epoch59_val_10.mp4\n",
      "Downloading weigths\n"
     ]
    },
    {
     "ename": "KeyboardInterrupt",
     "evalue": "",
     "output_type": "error",
     "traceback": [
      "\u001b[0;31m---------------------------------------------------------------------------\u001b[0m",
      "\u001b[0;31mKeyboardInterrupt\u001b[0m                         Traceback (most recent call last)",
      "Cell \u001b[0;32mIn[29], line 117\u001b[0m\n\u001b[1;32m    115\u001b[0m \u001b[38;5;28mprint\u001b[39m(mor\u001b[38;5;241m.\u001b[39mget_weigths_link(\u001b[38;5;241m1\u001b[39m))\n\u001b[1;32m    116\u001b[0m \u001b[38;5;28mprint\u001b[39m(mor\u001b[38;5;241m.\u001b[39mdownload_video(\u001b[38;5;241m59\u001b[39m,\u001b[38;5;124m\"\u001b[39m\u001b[38;5;124mdir_exp_PlacesAudio\u001b[39m\u001b[38;5;124m\"\u001b[39m))\n\u001b[0;32m--> 117\u001b[0m \u001b[38;5;28mprint\u001b[39m(\u001b[43mmor\u001b[49m\u001b[38;5;241;43m.\u001b[39;49m\u001b[43mdownload_weigths\u001b[49m\u001b[43m(\u001b[49m\u001b[38;5;241;43m59\u001b[39;49m\u001b[43m)\u001b[49m)\n",
      "Cell \u001b[0;32mIn[29], line 60\u001b[0m, in \u001b[0;36mModelOutputRetriever.download_weigths\u001b[0;34m(self, epoch)\u001b[0m\n\u001b[1;32m     58\u001b[0m \u001b[38;5;28;01mif\u001b[39;00m \u001b[38;5;129;01mnot\u001b[39;00m \u001b[38;5;28mself\u001b[39m\u001b[38;5;241m.\u001b[39mcheck_in_local(weigths_name):\n\u001b[1;32m     59\u001b[0m     \u001b[38;5;28mprint\u001b[39m(\u001b[38;5;124m\"\u001b[39m\u001b[38;5;124mDownloading weigths\u001b[39m\u001b[38;5;124m\"\u001b[39m)\n\u001b[0;32m---> 60\u001b[0m     \u001b[43mdownload_remote_file\u001b[49m\u001b[43m(\u001b[49m\n\u001b[1;32m     61\u001b[0m \u001b[43m        \u001b[49m\u001b[43mremote_path\u001b[49m\u001b[43m \u001b[49m\u001b[38;5;241;43m=\u001b[39;49m\u001b[43m \u001b[49m\u001b[43mweigths_link\u001b[49m\u001b[43m,\u001b[49m\n\u001b[1;32m     62\u001b[0m \u001b[43m        \u001b[49m\u001b[43mlocal_path\u001b[49m\u001b[43m \u001b[49m\u001b[38;5;241;43m=\u001b[39;49m\u001b[43m \u001b[49m\u001b[43mos\u001b[49m\u001b[38;5;241;43m.\u001b[39;49m\u001b[43mpath\u001b[49m\u001b[38;5;241;43m.\u001b[39;49m\u001b[43mjoin\u001b[49m\u001b[43m(\u001b[49m\u001b[38;5;28;43mself\u001b[39;49m\u001b[38;5;241;43m.\u001b[39;49m\u001b[43mlocal_dir\u001b[49m\u001b[43m,\u001b[49m\u001b[43mweigths_name\u001b[49m\u001b[43m)\u001b[49m\n\u001b[1;32m     63\u001b[0m \u001b[43m    \u001b[49m\u001b[43m)\u001b[49m\n\u001b[1;32m     64\u001b[0m \u001b[38;5;28;01melse\u001b[39;00m:\n\u001b[1;32m     65\u001b[0m     \u001b[38;5;28mprint\u001b[39m(\u001b[38;5;124m\"\u001b[39m\u001b[38;5;124mWeights already in local dir\u001b[39m\u001b[38;5;124m\"\u001b[39m)\n",
      "Cell \u001b[0;32mIn[15], line 37\u001b[0m, in \u001b[0;36mdownload_remote_file\u001b[0;34m(remote_path, local_path)\u001b[0m\n\u001b[1;32m     35\u001b[0m \u001b[38;5;66;03m# Command to download the specific file\u001b[39;00m\n\u001b[1;32m     36\u001b[0m download_command \u001b[38;5;241m=\u001b[39m \u001b[38;5;124mf\u001b[39m\u001b[38;5;124m\"\u001b[39m\u001b[38;5;124mscp -P 2122 asantos@pirineus3.csuc.cat:\u001b[39m\u001b[38;5;130;01m\\\"\u001b[39;00m\u001b[38;5;132;01m{\u001b[39;00mremote_path\u001b[38;5;132;01m}\u001b[39;00m\u001b[38;5;130;01m\\\"\u001b[39;00m\u001b[38;5;124m \u001b[39m\u001b[38;5;130;01m\\\"\u001b[39;00m\u001b[38;5;132;01m{\u001b[39;00mlocal_path\u001b[38;5;132;01m}\u001b[39;00m\u001b[38;5;130;01m\\\"\u001b[39;00m\u001b[38;5;124m\"\u001b[39m\n\u001b[0;32m---> 37\u001b[0m result \u001b[38;5;241m=\u001b[39m \u001b[43msubprocess\u001b[49m\u001b[38;5;241;43m.\u001b[39;49m\u001b[43mrun\u001b[49m\u001b[43m(\u001b[49m\u001b[43mdownload_command\u001b[49m\u001b[43m,\u001b[49m\u001b[43m \u001b[49m\u001b[43mshell\u001b[49m\u001b[38;5;241;43m=\u001b[39;49m\u001b[38;5;28;43;01mTrue\u001b[39;49;00m\u001b[43m,\u001b[49m\u001b[43m \u001b[49m\u001b[43mcapture_output\u001b[49m\u001b[38;5;241;43m=\u001b[39;49m\u001b[38;5;28;43;01mTrue\u001b[39;49;00m\u001b[43m,\u001b[49m\u001b[43m \u001b[49m\u001b[43mtext\u001b[49m\u001b[38;5;241;43m=\u001b[39;49m\u001b[38;5;28;43;01mTrue\u001b[39;49;00m\u001b[43m)\u001b[49m\n\u001b[1;32m     39\u001b[0m \u001b[38;5;28;01mif\u001b[39;00m result\u001b[38;5;241m.\u001b[39mreturncode \u001b[38;5;241m==\u001b[39m \u001b[38;5;241m0\u001b[39m:\n\u001b[1;32m     40\u001b[0m     \u001b[38;5;28mprint\u001b[39m(\u001b[38;5;124mf\u001b[39m\u001b[38;5;124m\"\u001b[39m\u001b[38;5;124mSuccessfully downloaded \u001b[39m\u001b[38;5;132;01m{\u001b[39;00mremote_path\u001b[38;5;132;01m}\u001b[39;00m\u001b[38;5;124m to \u001b[39m\u001b[38;5;132;01m{\u001b[39;00mlocal_path\u001b[38;5;132;01m}\u001b[39;00m\u001b[38;5;124m\"\u001b[39m)\n",
      "File \u001b[0;32m~/miniconda3/envs/ssl-cpu/lib/python3.8/subprocess.py:495\u001b[0m, in \u001b[0;36mrun\u001b[0;34m(input, capture_output, timeout, check, *popenargs, **kwargs)\u001b[0m\n\u001b[1;32m    493\u001b[0m \u001b[38;5;28;01mwith\u001b[39;00m Popen(\u001b[38;5;241m*\u001b[39mpopenargs, \u001b[38;5;241m*\u001b[39m\u001b[38;5;241m*\u001b[39mkwargs) \u001b[38;5;28;01mas\u001b[39;00m process:\n\u001b[1;32m    494\u001b[0m     \u001b[38;5;28;01mtry\u001b[39;00m:\n\u001b[0;32m--> 495\u001b[0m         stdout, stderr \u001b[38;5;241m=\u001b[39m \u001b[43mprocess\u001b[49m\u001b[38;5;241;43m.\u001b[39;49m\u001b[43mcommunicate\u001b[49m\u001b[43m(\u001b[49m\u001b[38;5;28;43minput\u001b[39;49m\u001b[43m,\u001b[49m\u001b[43m \u001b[49m\u001b[43mtimeout\u001b[49m\u001b[38;5;241;43m=\u001b[39;49m\u001b[43mtimeout\u001b[49m\u001b[43m)\u001b[49m\n\u001b[1;32m    496\u001b[0m     \u001b[38;5;28;01mexcept\u001b[39;00m TimeoutExpired \u001b[38;5;28;01mas\u001b[39;00m exc:\n\u001b[1;32m    497\u001b[0m         process\u001b[38;5;241m.\u001b[39mkill()\n",
      "File \u001b[0;32m~/miniconda3/envs/ssl-cpu/lib/python3.8/subprocess.py:1028\u001b[0m, in \u001b[0;36mPopen.communicate\u001b[0;34m(self, input, timeout)\u001b[0m\n\u001b[1;32m   1025\u001b[0m     endtime \u001b[38;5;241m=\u001b[39m \u001b[38;5;28;01mNone\u001b[39;00m\n\u001b[1;32m   1027\u001b[0m \u001b[38;5;28;01mtry\u001b[39;00m:\n\u001b[0;32m-> 1028\u001b[0m     stdout, stderr \u001b[38;5;241m=\u001b[39m \u001b[38;5;28;43mself\u001b[39;49m\u001b[38;5;241;43m.\u001b[39;49m\u001b[43m_communicate\u001b[49m\u001b[43m(\u001b[49m\u001b[38;5;28;43minput\u001b[39;49m\u001b[43m,\u001b[49m\u001b[43m \u001b[49m\u001b[43mendtime\u001b[49m\u001b[43m,\u001b[49m\u001b[43m \u001b[49m\u001b[43mtimeout\u001b[49m\u001b[43m)\u001b[49m\n\u001b[1;32m   1029\u001b[0m \u001b[38;5;28;01mexcept\u001b[39;00m \u001b[38;5;167;01mKeyboardInterrupt\u001b[39;00m:\n\u001b[1;32m   1030\u001b[0m     \u001b[38;5;66;03m# https://bugs.python.org/issue25942\u001b[39;00m\n\u001b[1;32m   1031\u001b[0m     \u001b[38;5;66;03m# See the detailed comment in .wait().\u001b[39;00m\n\u001b[1;32m   1032\u001b[0m     \u001b[38;5;28;01mif\u001b[39;00m timeout \u001b[38;5;129;01mis\u001b[39;00m \u001b[38;5;129;01mnot\u001b[39;00m \u001b[38;5;28;01mNone\u001b[39;00m:\n",
      "File \u001b[0;32m~/miniconda3/envs/ssl-cpu/lib/python3.8/subprocess.py:1884\u001b[0m, in \u001b[0;36mPopen._communicate\u001b[0;34m(self, input, endtime, orig_timeout)\u001b[0m\n\u001b[1;32m   1877\u001b[0m     \u001b[38;5;28mself\u001b[39m\u001b[38;5;241m.\u001b[39m_check_timeout(endtime, orig_timeout,\n\u001b[1;32m   1878\u001b[0m                         stdout, stderr,\n\u001b[1;32m   1879\u001b[0m                         skip_check_and_raise\u001b[38;5;241m=\u001b[39m\u001b[38;5;28;01mTrue\u001b[39;00m)\n\u001b[1;32m   1880\u001b[0m     \u001b[38;5;28;01mraise\u001b[39;00m \u001b[38;5;167;01mRuntimeError\u001b[39;00m(  \u001b[38;5;66;03m# Impossible :)\u001b[39;00m\n\u001b[1;32m   1881\u001b[0m         \u001b[38;5;124m'\u001b[39m\u001b[38;5;124m_check_timeout(..., skip_check_and_raise=True) \u001b[39m\u001b[38;5;124m'\u001b[39m\n\u001b[1;32m   1882\u001b[0m         \u001b[38;5;124m'\u001b[39m\u001b[38;5;124mfailed to raise TimeoutExpired.\u001b[39m\u001b[38;5;124m'\u001b[39m)\n\u001b[0;32m-> 1884\u001b[0m ready \u001b[38;5;241m=\u001b[39m \u001b[43mselector\u001b[49m\u001b[38;5;241;43m.\u001b[39;49m\u001b[43mselect\u001b[49m\u001b[43m(\u001b[49m\u001b[43mtimeout\u001b[49m\u001b[43m)\u001b[49m\n\u001b[1;32m   1885\u001b[0m \u001b[38;5;28mself\u001b[39m\u001b[38;5;241m.\u001b[39m_check_timeout(endtime, orig_timeout, stdout, stderr)\n\u001b[1;32m   1887\u001b[0m \u001b[38;5;66;03m# XXX Rewrite these to use non-blocking I/O on the file\u001b[39;00m\n\u001b[1;32m   1888\u001b[0m \u001b[38;5;66;03m# objects; they are no longer using C stdio!\u001b[39;00m\n",
      "File \u001b[0;32m~/miniconda3/envs/ssl-cpu/lib/python3.8/selectors.py:415\u001b[0m, in \u001b[0;36m_PollLikeSelector.select\u001b[0;34m(self, timeout)\u001b[0m\n\u001b[1;32m    413\u001b[0m ready \u001b[38;5;241m=\u001b[39m []\n\u001b[1;32m    414\u001b[0m \u001b[38;5;28;01mtry\u001b[39;00m:\n\u001b[0;32m--> 415\u001b[0m     fd_event_list \u001b[38;5;241m=\u001b[39m \u001b[38;5;28;43mself\u001b[39;49m\u001b[38;5;241;43m.\u001b[39;49m\u001b[43m_selector\u001b[49m\u001b[38;5;241;43m.\u001b[39;49m\u001b[43mpoll\u001b[49m\u001b[43m(\u001b[49m\u001b[43mtimeout\u001b[49m\u001b[43m)\u001b[49m\n\u001b[1;32m    416\u001b[0m \u001b[38;5;28;01mexcept\u001b[39;00m \u001b[38;5;167;01mInterruptedError\u001b[39;00m:\n\u001b[1;32m    417\u001b[0m     \u001b[38;5;28;01mreturn\u001b[39;00m ready\n",
      "\u001b[0;31mKeyboardInterrupt\u001b[0m: "
     ]
    }
   ],
   "source": [
    "from datetime import datetime, timedelta\n",
    "\n",
    "class ModelOutputRetriever:\n",
    "    def __init__(self,model_name,local_dir):\n",
    "        self.model_name = model_name\n",
    "        self.model_dir = os.path.join(\"models\",model_name)\n",
    "        self.local_dir = local_dir\n",
    "        #Check if the folder exists\n",
    "        if not folder_exists_in_cluster(self.model_dir):\n",
    "            raise Exception(f\"Model {model_name} doesn't exist among models\")\n",
    "        \n",
    "        # - if more than one ask the user which one if not use that one\n",
    "        filenames = list_files_in_remote_folder(self.model_dir)\n",
    "        if len(filenames) > 1:\n",
    "            request_string = f\"There's more than one json for {model_name}\\nChoose one:\\n\"\n",
    "            for idx, flname in enumerate(filenames):\n",
    "                file_string = f\"[{str(idx)}] {flname}\\n\"\n",
    "                request_string = request_string + file_string\n",
    "            idx_to_process = int(input(request_string))\n",
    "\n",
    "            print(f\"Using [{str(idx_to_process)}] {filenames[idx_to_process]}\")\n",
    "\n",
    "        else:\n",
    "            idx_to_process = 0\n",
    "            print(f\"Using {filenames[0]}\")\n",
    "        \n",
    "        #check if json is in local if not download\n",
    "        json_file = filenames[idx_to_process]\n",
    "        if not self.check_in_local(json_file):\n",
    "            download_remote_file(\n",
    "                remote_path = os.path.join(self.model_dir,json_file),\n",
    "                local_path = os.path.join(self.local_dir,json_file)\n",
    "                ) \n",
    "        self.json_file = os.path.join(self.local_dir,json_file)\n",
    "        \n",
    "        with open(self.json_file, 'r') as f:\n",
    "            self.data_json = json.load(f)\n",
    "\n",
    "        self.check_if_available()\n",
    "        \n",
    "\n",
    "    def check_in_local(self,file):\n",
    "        return os.path.exists(os.path.join(self.local_dir,file))\n",
    "            \n",
    "\n",
    "    def get_number_of_epochs(self):\n",
    "        return len(self.data_json) - 1\n",
    "    \n",
    "    def get_parameters(self):\n",
    "        return self.data_json['parameters']\n",
    "    \n",
    "    def get_weigths_link(self, epoch):\n",
    "        return self.data_json[str(epoch)]['weights_link']\n",
    "    \n",
    "    def download_weigths(self, epoch):\n",
    "        weigths_link = self.get_weigths_link(epoch)\n",
    "        weigths_name = self.model_name + \"-\" + weigths_link.split('/')[-1]\n",
    "        if not self.check_in_local(weigths_name):\n",
    "            print(\"Downloading weigths\")\n",
    "            download_remote_file(\n",
    "                remote_path = weigths_link,\n",
    "                local_path = os.path.join(self.local_dir,weigths_name)\n",
    "            )\n",
    "        else:\n",
    "            print(\"Weights already in local dir\")\n",
    "        return os.path.join(self.local_dir,weigths_name)\n",
    "    \n",
    "    def get_video_link(self, epoch):\n",
    "        return self.data_json[str(epoch)]['video_link']\n",
    "    \n",
    "    def download_video(self, epoch, path_2_save = None):\n",
    "        video_link = self.get_video_link(epoch)\n",
    "        sample_idx = self.data_json[\"parameters\"][\"val_video_idx\"]\n",
    "        video_name = f'mm_{self.model_name}-epoch{epoch}_val_{sample_idx}.mp4'\n",
    "        if not self.check_in_local(video_name):\n",
    "            print(\"Downloading video\")\n",
    "            download_remote_file(\n",
    "                remote_path = video_link,\n",
    "                local_path = os.path.join(path_2_save if path_2_save else self.local_dir\n",
    "                                          ,video_name)\n",
    "            )\n",
    "        else:\n",
    "            print(\"Video already in local dir\")\n",
    "        return os.path.join(self.local_dir,video_name)\n",
    "    \n",
    "    def check_if_available(self):\n",
    "        \"\"\"\n",
    "        Check if 7 seven days have passed since the time creation\n",
    "        \"\"\"\n",
    "        # Parse the time_creation string into a datetime object\n",
    "        creation_time = datetime.strptime(self.data_json[\"parameters\"][\"time_creation\"], \"%Y-%m-%d %H:%M\")\n",
    "\n",
    "        # Check if 7 days have passed since the creation time\n",
    "        if datetime.now() - creation_time > timedelta(days=7):\n",
    "            print(\"The model is no longer available.\")\n",
    "            return False\n",
    "        else:\n",
    "            print(\"The model is still available. Creation time: \",creation_time)\n",
    "            time_difference = timedelta(days=7) - (datetime.now() - creation_time)\n",
    "            days = time_difference.days\n",
    "            hours = time_difference.seconds // 3600\n",
    "\n",
    "            if days > 0:\n",
    "                print(f\"The model will be available for {days} more days.\")\n",
    "            else:\n",
    "                print(f\"The model will be available for {hours} more hours.\")\n",
    "            return True\n",
    "    \n",
    "      \n",
    "model_name = \"SSL_TIE_PlacesAudio-lr1e-5-2ly-B128-SISA-1GPUS-wV\"\n",
    "local_dir_saving = \"garbage\"\n",
    "mor = ModelOutputRetriever(model_name,local_dir_saving)\n",
    "print(mor.get_number_of_epochs())\n",
    "print(mor.get_parameters())\n",
    "print(mor.get_weigths_link(1))\n",
    "print(mor.download_video(59,\"dir_exp_PlacesAudio\"))\n",
    "print(mor.download_weigths(59))\n",
    "\n",
    "        \n",
    "\n",
    "        "
   ]
  },
  {
   "cell_type": "code",
   "execution_count": 23,
   "metadata": {},
   "outputs": [
    {
     "name": "stdout",
     "output_type": "stream",
     "text": [
      "Using [2] links_try_json_135914.json\n",
      "Successfully downloaded models/try_json/links_try_json_135914.json to garbage/links_try_json_135914.json\n",
      "The model is still available.\n"
     ]
    }
   ],
   "source": [
    "model_name2 = \"try_json\"\n",
    "mor2= ModelOutputRetriever(model_name2,local_dir_saving)"
   ]
  },
  {
   "cell_type": "markdown",
   "metadata": {},
   "source": [
    "# The Mega Function"
   ]
  },
  {
   "cell_type": "code",
   "execution_count": 34,
   "metadata": {},
   "outputs": [],
   "source": [
    "import sys\n",
    "from opts import get_arguments\n",
    "\n",
    "\n",
    "def inference_maker(model_name, epoch, split, sample_idx, local_dir_saving):\n",
    "    inference_name = f'mm_{model_name}-epoch{epoch}_{split}_{sample_idx}.mp4'\n",
    "    inference_local_path = os.path.join(local_dir_saving, inference_name)\n",
    "\n",
    "    if os.path.exists(inference_local_path):\n",
    "        print(\"Inference already in local\")\n",
    "        return inference_local_path\n",
    "    print(\"Proceed to make the inference\")\n",
    "    model_weights_path = os.path.join(local_dir_saving,\n",
    "                                      f'{model_name}-epoch{epoch}.pth.tar')\n",
    "    \n",
    "    # Simulate command-line arguments for loading the model\n",
    "    sys.argv = ['script_name', '--order_3_tensor', '--simtype', 'MISA']\n",
    "\n",
    "    args = get_arguments()\n",
    "\n",
    "    #Check if the model exist in local\n",
    "    if os.path.exists(model_weights_path):\n",
    "        print(\"The model is in local\")\n",
    "        model, device = load_model(model_weights_path,args)\n",
    "        print(\"-Model Loaded\")\n",
    "    else:\n",
    "        #Request if user wants to download the model\n",
    "        user_input = input(\"Model weights not found locally. Do you want to download them? (yes/no): \").strip().lower()\n",
    "        if user_input == \"yes\":\n",
    "            mor = ModelOutputRetriever(model_name, local_dir_saving)\n",
    "            model_weights_path = mor.download_weigths(epoch)\n",
    "            model, device = load_model(model_weights_path, args)\n",
    "            print(\"-Model Loaded\")\n",
    "        else:\n",
    "            raise FileNotFoundError(\"Model weights are required but not available locally.\")\n",
    "    \n",
    "    #Check if the audio and the image of the sample index is in local\n",
    "    json_file = f'garbage/{split}.json'\n",
    "    if os.path.exists(json_file):\n",
    "        gs = GetSampleFromJson(json_file, local_dir_saving)\n",
    "        img_local_path, aud_local_path = gs.download_sample(sample_idx)\n",
    "    else:\n",
    "        raise FileNotFoundError(\"json file not found for retrieving the samples\")\n",
    "\n",
    "    img = gs.load_image(img_local_path)\n",
    "    spec = gs.load_audio_to_spec(aud_local_path)\n",
    "\n",
    "    mgv = MatchmapVideoGenerator(model, device, img, spec, args)\n",
    "    mgv.create_video_with_audio(inference_local_path, aud_local_path)\n",
    "    \n",
    "    \n",
    "    return inference_local_path\n"
   ]
  },
  {
   "cell_type": "code",
   "execution_count": 36,
   "metadata": {},
   "outputs": [
    {
     "name": "stdout",
     "output_type": "stream",
     "text": [
      "Proceed to make the inference\n",
      "The model is in local\n",
      "-Model Loaded\n",
      "Sample NOT in dir_exp_PlacesAudio \n",
      "-> download  \n",
      "['scp', '-P', '2122', 'asantos@pirineus3.csuc.cat:/data/upftfg03/asantos/PlacesAudio_400k_distro/images256/p/picnic_area/gsun_0782ffe2a06a466eb3b1d44049b92c89.jpg', 'dir_exp_PlacesAudio/frame']\n"
     ]
    },
    {
     "name": "stderr",
     "output_type": "stream",
     "text": [
      "/tmp/ipykernel_1355/1936299536.py:29: DeprecationWarning: BICUBIC is deprecated and will be removed in Pillow 10 (2023-07-01). Use Resampling.BICUBIC instead.\n",
      "  transforms.Resize(224,Image.BICUBIC),\n"
     ]
    },
    {
     "name": "stdout",
     "output_type": "stream",
     "text": [
      "['scp', '-P', '2122', 'asantos@pirineus3.csuc.cat:/data/upftfg03/asantos/PlacesAudio_400k_distro/wavs/3/utterance_35672.wav', 'dir_exp_PlacesAudio/audio']\n"
     ]
    },
    {
     "name": "stderr",
     "output_type": "stream",
     "text": [
      "/home/albert/miniconda3/envs/ssl-cpu/lib/python3.8/site-packages/torchaudio/functional/functional.py:576: UserWarning: At least one mel filterbank has all zero values. The value for `n_mels` (257) may be set too high. Or, the value for `n_freqs` (257) may be set too low.\n",
      "  warnings.warn(\n"
     ]
    },
    {
     "name": "stdout",
     "output_type": "stream",
     "text": [
      "Video created at: dir_exp_PlacesAudio/mm_SSL_TIE_PlacesAudio-lr1e-5-2ly-B128-SISA-1GPUS-wV-epoch50_val_17.mp4\n",
      "Success! Video file created: 172201 bytes\n"
     ]
    },
    {
     "name": "stderr",
     "output_type": "stream",
     "text": [
      "ffmpeg version 5.1.2 Copyright (c) 2000-2022 the FFmpeg developers\n",
      "  built with gcc 11.3.0 (conda-forge gcc 11.3.0-19)\n",
      "  configuration: --prefix=/home/albert/miniconda3/envs/ssl-cpu --cc=/home/conda/feedstock_root/build_artifacts/ffmpeg_1674566204550/_build_env/bin/x86_64-conda-linux-gnu-cc --cxx=/home/conda/feedstock_root/build_artifacts/ffmpeg_1674566204550/_build_env/bin/x86_64-conda-linux-gnu-c++ --nm=/home/conda/feedstock_root/build_artifacts/ffmpeg_1674566204550/_build_env/bin/x86_64-conda-linux-gnu-nm --ar=/home/conda/feedstock_root/build_artifacts/ffmpeg_1674566204550/_build_env/bin/x86_64-conda-linux-gnu-ar --disable-doc --disable-openssl --enable-demuxer=dash --enable-hardcoded-tables --enable-libfreetype --enable-libfontconfig --enable-libopenh264 --enable-gnutls --enable-libmp3lame --enable-libvpx --enable-pthreads --enable-vaapi --enable-gpl --enable-libx264 --enable-libx265 --enable-libaom --enable-libsvtav1 --enable-libxml2 --enable-pic --enable-shared --disable-static --enable-version3 --enable-zlib --enable-libopus --pkg-config=/home/conda/feedstock_root/build_artifacts/ffmpeg_1674566204550/_build_env/bin/pkg-config\n",
      "  libavutil      57. 28.100 / 57. 28.100\n",
      "  libavcodec     59. 37.100 / 59. 37.100\n",
      "  libavformat    59. 27.100 / 59. 27.100\n",
      "  libavdevice    59.  7.100 / 59.  7.100\n",
      "  libavfilter     8. 44.100 /  8. 44.100\n",
      "  libswscale      6.  7.100 /  6.  7.100\n",
      "  libswresample   4.  7.100 /  4.  7.100\n",
      "  libpostproc    56.  6.100 / 56.  6.100\n",
      "Input #0, mov,mp4,m4a,3gp,3g2,mj2, from 'dir_exp_PlacesAudio/mm_SSL_TIE_PlacesAudio-lr1e-5-2ly-B128-SISA-1GPUS-wV-epoch50_val_17.mp4':\n",
      "  Metadata:\n",
      "    major_brand     : isom\n",
      "    minor_version   : 512\n",
      "    compatible_brands: isomiso2avc1mp41\n",
      "    encoder         : Lavf59.27.100\n",
      "  Duration: 00:00:10.00, start: 0.000000, bitrate: 137 kb/s\n",
      "  Stream #0:0[0x1](und): Video: h264 (High) (avc1 / 0x31637661), yuv420p(progressive), 224x224, 136 kb/s, 4.20 fps, 4.20 tbr, 10752 tbn (default)\n",
      "    Metadata:\n",
      "      handler_name    : VideoHandler\n",
      "      vendor_id       : [0][0][0][0]\n",
      "Guessed Channel Layout for Input Stream #1.0 : mono\n",
      "Input #1, wav, from 'dir_exp_PlacesAudio/audio/utterance_35672.wav':\n",
      "  Duration: 00:00:05.72, bitrate: 256 kb/s\n",
      "  Stream #1:0: Audio: pcm_s16le ([1][0][0][0] / 0x0001), 16000 Hz, mono, s16, 256 kb/s\n",
      "Stream mapping:\n",
      "  Stream #0:0 -> #0:0 (copy)\n",
      "  Stream #1:0 -> #0:1 (pcm_s16le (native) -> mp3 (libmp3lame))\n",
      "Press [q] to stop, [?] for help\n",
      "Output #0, mp4, to 'temp_output.mp4':\n",
      "  Metadata:\n",
      "    major_brand     : isom\n",
      "    minor_version   : 512\n",
      "    compatible_brands: isomiso2avc1mp41\n",
      "    encoder         : Lavf59.27.100\n",
      "  Stream #0:0(und): Video: h264 (High) (avc1 / 0x31637661), yuv420p(progressive), 224x224, q=2-31, 136 kb/s, 4.20 fps, 4.20 tbr, 10752 tbn (default)\n",
      "    Metadata:\n",
      "      handler_name    : VideoHandler\n",
      "      vendor_id       : [0][0][0][0]\n",
      "  Stream #0:1: Audio: mp3 (mp4a / 0x6134706D), 16000 Hz, mono, s16p\n",
      "    Metadata:\n",
      "      encoder         : Lavc59.37.100 libmp3lame\n",
      "frame=   42 fps=0.0 q=-1.0 Lsize=     199kB time=00:00:10.01 bitrate= 162.7kbits/s speed= 111x    \n",
      "video:167kB audio:30kB subtitle:0kB other streams:0kB global headers:0kB muxing overhead: 1.280113%\n"
     ]
    },
    {
     "data": {
      "text/plain": [
       "'dir_exp_PlacesAudio/mm_SSL_TIE_PlacesAudio-lr1e-5-2ly-B128-SISA-1GPUS-wV-epoch50_val_17.mp4'"
      ]
     },
     "execution_count": 36,
     "metadata": {},
     "output_type": "execute_result"
    }
   ],
   "source": [
    "model_name = \"SSL_TIE_PlacesAudio-lr1e-5-2ly-B128-SISA-1GPUS-wV\"\n",
    "\n",
    "inference_maker(\n",
    "    model_name=model_name,\n",
    "    epoch=50,\n",
    "    split=\"val\",\n",
    "    sample_idx=17,\n",
    "    local_dir_saving=\"dir_exp_PlacesAudio\"\n",
    "    )"
   ]
  }
 ],
 "metadata": {
  "kernelspec": {
   "display_name": "ssl-cpu",
   "language": "python",
   "name": "python3"
  },
  "language_info": {
   "codemirror_mode": {
    "name": "ipython",
    "version": 3
   },
   "file_extension": ".py",
   "mimetype": "text/x-python",
   "name": "python",
   "nbconvert_exporter": "python",
   "pygments_lexer": "ipython3",
   "version": "3.8.20"
  }
 },
 "nbformat": 4,
 "nbformat_minor": 2
}
